<?xml version="1.0" standalone="no"?>
<!DOCTYPE svg PUBLIC "-//W3C//DTD SVG 20010904//EN"
 "http://www.w3.org/TR/2001/REC-SVG-20010904/DTD/svg10.dtd">
<svg version="1.0" xmlns="http://www.w3.org/2000/svg"
 width="500.000000pt" height="380.000000pt" viewBox="0 0 500.000000 380.000000"
 preserveAspectRatio="xMidYMid meet">

<g transform="translate(0.000000,380.000000) scale(0.100000,-0.100000)"
fill="#008f39" stroke="none">
<path d="M1923 3475 c-10 -7 -39 -15 -66 -19 -26 -4 -45 -12 -42 -17 4 -5 10
-7 15 -4 5 3 11 1 14 -4 7 -11 -22 -23 -35 -15 -21 13 -48 -8 -55 -42 -5 -28
-2 -40 15 -58 12 -12 18 -25 15 -29 -10 -9 24 -57 40 -57 19 0 40 -27 71 -89
32 -64 40 -172 14 -194 -20 -16 -43 -47 -36 -47 3 0 23 17 43 38 21 20 34 31
30 25 -4 -7 -4 -13 -1 -13 10 0 69 43 73 52 2 4 10 8 18 8 8 0 13 5 12 12 -2
6 7 14 20 17 13 3 23 8 22 11 -5 19 14 37 33 32 22 -5 22 -5 3 13 -11 11 -14
21 -8 23 6 2 1 17 -12 37 -33 48 -51 146 -35 189 11 29 10 36 -5 51 -9 9 -23
29 -31 45 -18 34 -83 55 -112 35z m92 -35 c3 -6 -1 -7 -9 -4 -18 7 -21 14 -7
14 6 0 13 -4 16 -10z m25 -130 c0 -5 -4 -10 -10 -10 -5 0 -10 5 -10 10 0 6 5
10 10 10 6 0 10 -4 10 -10z"/>
<path d="M2722 3450 c-39 -24 -40 -39 -7 -70 l25 -23 0 26 c0 14 5 38 10 53
14 35 10 37 -28 14z"/>
<path d="M2040 3455 c0 -15 18 -40 24 -34 3 3 -1 14 -9 25 -8 10 -14 15 -15 9z"/>
<path d="M2795 3450 c-30 -11 -49 -93 -36 -151 17 -77 21 -110 12 -105 -5 3
-14 -17 -21 -44 -7 -28 -23 -66 -36 -85 -13 -19 -19 -36 -14 -36 6 -1 14 -2
19 -3 19 -2 25 -17 11 -27 -13 -8 -13 -11 2 -23 10 -7 15 -16 11 -20 -4 -3 3
-13 15 -22 12 -8 22 -22 22 -30 0 -21 40 -53 67 -54 12 0 25 -5 28 -11 4 -5
12 -8 18 -6 7 2 28 -3 47 -11 31 -13 33 -13 21 2 -7 9 -18 16 -23 16 -5 0 -21
9 -35 20 -30 23 -23 27 11 5 20 -13 27 -13 49 -2 26 14 27 14 8 36 -19 21 -47
28 -53 12 -1 -4 -12 1 -23 12 -17 17 -17 19 -2 14 22 -8 22 11 1 34 -10 11
-17 37 -17 67 -1 61 44 157 83 177 26 14 42 37 57 90 11 34 11 80 2 80 -4 0
-16 9 -28 19 -19 17 -21 17 -21 2 0 -15 -3 -15 -28 -2 -16 8 -39 12 -52 9 -16
-4 -21 -3 -16 5 4 7 2 12 -3 12 -6 0 -11 -4 -11 -10 0 -5 -4 -10 -10 -10 -5 0
-10 9 -10 19 0 23 -18 31 -45 21z m10 -42 c-3 -13 -12 -43 -20 -68 -8 -27 -14
-36 -14 -23 -1 33 22 113 32 113 5 0 6 -10 2 -22z m28 -514 c-6 -16 -25 -14
-30 2 -2 5 6 10 16 11 14 1 18 -3 14 -13z m51 8 c2 -4 -4 -8 -14 -8 -10 0 -16
4 -14 8 3 4 9 8 14 8 5 0 11 -4 14 -8z m66 -2 c0 -5 -2 -10 -4 -10 -3 0 -8 5
-11 10 -3 6 -1 10 4 10 6 0 11 -4 11 -10z"/>
<path d="M2536 3275 c-8 -8 -19 -15 -25 -15 -5 0 -9 -11 -8 -24 3 -36 -17 -36
-24 -1 l-7 30 -2 -35 c-1 -19 -1 -39 0 -45 1 -5 3 -22 5 -38 1 -15 9 -35 18
-45 23 -25 33 -92 16 -103 -10 -6 -11 -9 -1 -9 6 0 12 -7 12 -15 0 -22 -32
-85 -41 -79 -16 10 -18 -14 -4 -61 8 -26 15 -75 15 -108 0 -43 5 -66 18 -80
17 -19 16 -20 -7 -7 -24 12 -24 12 -18 -31 3 -24 3 -36 0 -26 -2 9 -8 17 -13
17 -5 0 -7 -7 -4 -15 4 -10 0 -15 -11 -15 -14 0 -14 -4 5 -31 12 -16 20 -33
17 -35 -3 -3 -11 4 -17 16 l-11 21 -21 -26 c-11 -14 -22 -24 -24 -22 -4 4 9
51 26 92 16 42 39 165 34 180 -4 9 -13 14 -21 11 -7 -3 -22 3 -32 13 -11 11
-22 17 -25 13 -13 -12 -5 15 9 34 9 10 14 13 13 5 -2 -7 3 -16 11 -18 9 -4 11
0 6 16 -4 12 -2 21 4 21 24 0 9 21 -19 26 -16 4 -28 9 -25 13 2 4 -5 12 -16
19 -10 7 -19 8 -19 3 0 -5 -13 -12 -29 -16 -22 -5 -31 -14 -36 -35 -6 -28 -53
-60 -89 -60 -12 0 -14 -7 -10 -29 5 -22 0 -34 -20 -54 -27 -27 -34 -47 -15
-47 7 0 9 -9 5 -24 -6 -24 15 -43 35 -30 8 5 14 -18 9 -41 -1 -5 4 -5 11 2 9
10 18 8 41 -8 15 -11 28 -28 28 -37 0 -13 -6 -10 -25 12 -29 34 -40 30 -25 -8
6 -18 14 -25 22 -20 7 4 10 4 6 -1 -4 -4 -2 -17 4 -28 11 -21 10 -21 -15 -4
-22 14 -27 14 -37 2 -16 -19 -30 -10 -23 14 7 26 -12 35 -32 15 -9 -9 -19 -13
-23 -9 -4 4 4 15 17 26 31 25 17 24 -25 -2 -41 -25 -45 -13 -5 20 28 24 28 24
9 46 -13 15 -28 21 -48 19 -39 -5 -50 24 -12 32 46 10 48 11 22 22 -18 8 -20
11 -7 11 9 1 17 8 17 16 0 16 -24 19 -55 5 l-20 -9 20 -1 c18 -1 18 -2 4 -13
-8 -7 -18 -20 -22 -30 -4 -10 -11 -16 -17 -12 -5 3 -18 1 -29 -4 -14 -8 -21
-8 -24 2 -3 7 -6 5 -6 -6 -1 -14 4 -16 24 -11 30 7 34 -11 5 -26 -14 -7 -20
-7 -20 0 0 7 -6 7 -17 1 -10 -6 -36 -18 -58 -27 -22 -10 -51 -26 -64 -36 -19
-15 -26 -16 -33 -6 -6 11 -8 11 -8 0 0 -25 43 -30 72 -9 20 15 31 18 39 10 8
-8 -3 -16 -38 -28 -26 -9 -56 -21 -65 -26 -26 -14 -36 -10 -15 5 10 8 14 17 9
20 -5 3 -26 -14 -46 -39 -33 -40 -35 -45 -19 -55 15 -9 14 -10 -7 -4 -14 4
-30 7 -37 7 -7 0 -10 4 -7 8 2 4 0 10 -6 14 -5 3 -10 -1 -10 -9 0 -9 -4 -16
-10 -16 -5 0 -10 7 -10 15 0 9 -9 15 -21 15 -18 0 -19 -2 -9 -15 10 -12 10
-15 -3 -15 -8 0 -18 11 -21 25 -4 14 -12 24 -18 22 -7 -1 -13 5 -14 13 -2 30
-4 32 -20 19 -13 -11 -15 -11 -14 2 5 30 -1 37 -32 35 -20 0 -33 4 -33 11 0 7
-10 20 -22 28 -22 15 -23 15 -23 -4 0 -11 5 -23 10 -26 17 -10 1 -25 -26 -25
-14 0 -22 -4 -19 -10 4 -6 -6 -10 -24 -10 -24 0 -29 -3 -24 -17 5 -13 2 -15
-12 -10 -15 6 -16 5 -5 -8 11 -13 10 -19 -7 -38 -11 -12 -18 -28 -16 -34 3 -7
0 -13 -6 -13 -6 0 -11 6 -11 13 -1 17 -30 -64 -30 -83 0 -11 2 -12 8 -2 7 9
13 8 27 -8 12 -14 27 -19 40 -16 23 6 39 -2 48 -24 4 -12 6 -12 6 2 1 12 6 15
17 11 10 -3 12 -8 5 -12 -6 -4 24 -7 67 -8 100 -1 121 -5 115 -19 -2 -6 3 -14
12 -18 9 -3 14 -10 10 -15 -3 -5 -1 -12 5 -16 5 -3 10 -13 10 -22 0 -9 -13 2
-30 25 -17 23 -32 42 -34 42 -2 0 5 -18 16 -41 21 -44 17 -65 -7 -33 -13 18
-14 16 -16 -21 -1 -22 -4 -56 -7 -75 -2 -19 -5 -50 -5 -67 0 -18 -3 -33 -7
-33 -4 0 -6 -27 -5 -59 1 -35 -3 -58 -8 -54 -5 3 -7 58 -3 132 3 69 6 130 6
134 0 5 4 6 9 3 4 -3 6 7 3 22 -5 22 -7 24 -10 7 -2 -11 -8 -25 -13 -31 -5 -6
-8 -22 -8 -35 1 -13 -2 -51 -6 -84 -9 -69 -9 -62 -2 -175 3 -47 4 -75 1 -62
-3 12 -10 22 -15 22 -5 0 -9 8 -9 17 0 10 -9 0 -20 -22 -23 -45 -23 -45 -10
-45 5 0 13 12 16 27 7 24 8 25 14 8 4 -11 4 -25 -1 -31 -6 -7 -5 -21 0 -35 9
-23 10 -23 11 6 0 26 2 27 11 12 6 -9 15 -14 21 -11 8 5 9 1 4 -12 -18 -42
-17 -55 3 -86 l20 -33 -5 43 c-3 27 -1 42 6 42 6 0 8 4 5 10 -3 5 -7 38 -9 72
-3 65 18 143 35 132 5 -3 7 -9 4 -14 -3 -5 -1 -11 5 -15 5 -3 10 -11 10 -18 0
-6 -7 -2 -16 9 -12 14 -14 15 -11 3 3 -9 0 -22 -6 -28 -8 -8 -8 -14 1 -23 9
-9 12 -9 12 0 0 7 5 12 10 12 13 0 2 -50 -16 -70 -13 -16 -8 -73 7 -64 5 3 9
0 9 -6 0 -7 -7 -10 -15 -6 -12 4 -15 -3 -15 -35 0 -35 3 -40 18 -35 15 5 15 4
-2 -8 -18 -15 -18 -16 1 -48 19 -33 20 -78 2 -78 -6 0 -8 3 -6 8 3 4 -1 21 -8
37 -8 18 -14 23 -14 13 -1 -9 -6 -20 -13 -24 -8 -5 -9 2 -5 24 4 17 2 34 -4
37 -5 4 -8 14 -5 23 3 10 -6 35 -19 57 l-25 40 0 -40 c1 -22 0 -51 0 -65 l-1
-25 -10 25 c-6 14 -7 46 -4 72 7 51 -10 102 -26 77 -7 -11 -9 -10 -9 4 0 24
-24 17 -30 -10 -4 -16 -9 -20 -19 -14 -12 8 -12 13 3 36 11 17 23 24 33 21 11
-5 13 -2 9 10 -3 8 -6 18 -6 20 0 2 -11 -3 -26 -12 -25 -17 -61 -74 -47 -74 5
0 0 -5 -9 -11 -10 -5 -20 -9 -23 -9 -3 0 -19 -7 -37 -16 -17 -9 -49 -16 -70
-16 -20 1 -37 -2 -36 -6 1 -4 -3 -17 -10 -30 -7 -12 -10 -28 -6 -34 4 -7 3 -8
-4 -4 -7 4 -12 15 -12 25 0 27 -29 49 -40 31 -6 -10 -9 -8 -13 6 -4 16 -5 16
-6 -3 -1 -27 -19 -30 -37 -5 -10 13 -12 14 -11 2 1 -8 -2 -15 -8 -15 -5 0 -8
5 -7 10 2 6 0 6 -5 2 -4 -5 -8 -14 -8 -19 0 -6 -6 -13 -14 -16 -10 -3 -12 0
-8 12 9 24 -9 20 -27 -6 -20 -29 -20 -77 -1 -98 9 -10 18 -30 21 -46 3 -16 15
-39 27 -52 21 -22 21 -24 5 -36 -20 -15 -14 -26 14 -26 10 0 18 -4 18 -9 0
-13 74 -6 97 9 15 9 13 10 -10 5 -20 -4 -27 -2 -22 5 5 7 20 9 40 6 30 -6 34
-4 43 24 9 24 25 37 74 60 35 17 77 30 95 30 39 0 143 -44 143 -61 0 -17 41
-81 48 -75 3 3 -2 14 -10 23 -9 10 -19 28 -22 39 -4 12 -18 33 -32 47 -20 20
-22 26 -9 30 10 5 13 16 10 39 -3 18 -3 27 1 20 3 -6 10 -9 16 -6 6 4 7 -10 3
-39 -5 -29 -3 -47 4 -52 8 -5 10 1 5 19 -4 16 -2 26 5 26 6 0 11 -9 11 -20 0
-11 5 -20 10 -20 6 0 10 8 10 17 0 14 3 13 16 -6 14 -19 14 -27 4 -47 -13 -24
-33 -24 -24 0 7 17 -12 30 -21 16 -4 -6 1 -20 12 -32 10 -11 18 -34 19 -52 2
-75 4 -87 14 -81 12 8 11 115 -1 115 -5 0 -5 8 -2 17 4 11 8 12 11 5 2 -7 8
-12 14 -12 6 0 8 7 4 15 -3 8 -1 15 4 15 6 0 10 -9 10 -20 0 -11 -3 -20 -7
-20 -5 0 -9 -11 -9 -24 -1 -17 2 -23 12 -19 8 3 14 1 14 -5 0 -5 -7 -12 -15
-16 -8 -3 -15 -12 -15 -20 0 -18 77 -14 109 6 27 17 26 26 -3 57 -25 27 -29
39 -27 81 1 20 7 13 31 -35 27 -56 29 -58 29 -28 1 38 18 53 23 21 3 -21 5
-20 22 11 11 20 15 43 11 58 -4 17 -2 23 6 17 12 -7 8 -80 -6 -116 -6 -14 -2
-18 15 -18 19 0 20 -2 10 -15 -9 -10 -9 -15 -1 -15 6 0 11 -4 11 -10 0 -5 -10
-10 -22 -10 l-23 0 24 -19 25 -19 -27 5 c-20 4 -27 1 -27 -11 0 -9 5 -16 12
-16 6 0 9 -3 6 -6 -4 -3 -16 0 -28 6 -15 8 -20 8 -16 1 4 -7 -8 -13 -34 -17
-22 -4 -43 -11 -46 -15 -3 -5 -16 -9 -30 -9 -13 0 -24 -4 -24 -10 0 -5 -11
-10 -25 -10 -14 0 -28 -7 -32 -16 -3 -8 -12 -13 -19 -10 -11 4 -13 -1 -8 -22
4 -15 10 -31 14 -35 4 -5 5 -28 2 -50 -5 -41 -5 -42 15 -24 35 30 60 16 28
-17 -8 -8 -15 -21 -15 -30 0 -23 49 -75 86 -91 37 -15 76 -9 72 12 -2 8 -6 13
-9 11 -9 -5 -39 23 -34 32 5 8 -38 40 -55 40 -5 0 -10 -7 -10 -15 0 -8 5 -15
11 -15 5 0 8 -4 4 -9 -3 -5 4 -12 15 -16 21 -7 28 -25 10 -25 -6 0 -21 7 -34
16 -20 12 -24 23 -24 59 1 34 5 45 20 48 15 4 18 11 13 34 l-6 28 14 -30 c8
-16 12 -35 10 -42 -3 -6 4 -14 15 -17 10 -4 25 -18 33 -32 7 -14 21 -30 31
-35 15 -8 20 -5 27 15 6 13 15 27 20 31 13 8 14 3 1 -29 -5 -14 -7 -26 -4 -26
8 0 29 63 27 85 -1 18 0 18 12 2 18 -25 22 -22 36 34 12 45 15 49 26 33 7 -10
13 -12 13 -6 0 20 26 13 65 -18 21 -16 34 -30 29 -30 -14 0 12 -20 32 -25 10
-2 30 -7 44 -10 l25 -6 -25 15 c-14 8 -35 15 -47 16 -15 0 -21 5 -17 14 6 16
-29 56 -50 56 -7 0 -26 10 -41 21 -22 18 -29 20 -36 8 -6 -9 -7 -4 -3 16 9 39
7 38 34 15 13 -11 29 -20 36 -20 7 0 18 -9 24 -19 5 -11 23 -22 40 -26 16 -4
28 -12 27 -18 -1 -6 3 -11 10 -12 7 0 19 -9 27 -20 8 -11 18 -17 22 -13 4 4
13 0 20 -10 9 -12 13 -13 14 -4 0 10 9 8 34 -7 36 -22 66 -27 66 -11 0 6 5 10
10 10 6 0 10 -7 10 -15 0 -9 -9 -15 -21 -15 -33 0 -19 -33 19 -44 17 -5 32
-13 32 -19 0 -5 -7 -6 -16 -3 -50 19 -63 13 -19 -8 66 -33 71 -32 46 9 -11 19
-16 35 -11 35 5 0 12 -5 15 -10 4 -6 15 -8 26 -5 14 5 17 3 13 -9 -4 -11 -1
-16 10 -16 9 0 28 -8 43 -17 25 -17 26 -17 12 4 -7 12 -17 21 -22 20 -5 -1
-12 4 -14 11 -6 15 24 6 50 -16 22 -20 22 0 -1 21 -22 21 -72 39 -72 27 0 -11
-63 14 -67 27 -2 4 8 9 22 9 13 1 23 -1 22 -5 -1 -3 3 -6 8 -6 6 0 9 3 7 8 -1
4 2 7 8 7 5 0 10 -7 10 -16 0 -11 6 -15 20 -11 11 3 20 0 20 -5 0 -6 8 -4 17
3 9 8 14 9 10 2 -4 -6 0 -19 9 -27 8 -9 13 -16 9 -16 -3 0 -1 -10 6 -21 8 -17
8 -20 -1 -14 -8 5 -11 3 -8 -6 3 -8 10 -13 15 -12 19 4 -14 -147 -35 -163 -10
-7 -14 -31 -14 -85 0 -97 0 -96 15 -97 6 0 23 -4 36 -8 20 -6 23 -4 18 9 -5
14 -2 14 26 2 36 -15 124 -12 140 4 6 6 13 42 15 79 4 62 2 71 -23 100 -14 17
-29 47 -32 66 -5 33 -4 35 28 39 l34 4 -36 1 c-34 2 -35 4 -31 33 5 36 56 97
67 80 4 -7 2 -17 -4 -24 -6 -8 -6 -18 -1 -27 6 -9 10 -10 10 -3 0 6 9 9 23 6
21 -5 21 -5 3 9 -15 12 -16 18 -7 36 15 28 14 33 -4 26 -32 -13 -13 7 21 21
48 20 51 19 27 -7 -12 -13 -23 -32 -25 -43 -2 -16 2 -19 25 -17 15 1 27 -2 27
-8 0 -5 -7 -10 -16 -10 -8 0 -12 -5 -9 -10 4 -6 10 -8 15 -5 4 3 11 -1 13 -7
3 -7 6 -2 6 11 1 24 1 24 23 5 13 -12 18 -13 13 -4 -7 12 -6 13 6 4 8 -6 26
-11 41 -10 23 1 27 -2 22 -18 -5 -15 -3 -18 12 -12 10 4 16 4 12 1 -3 -4 4
-28 17 -53 13 -26 25 -67 28 -92 3 -25 4 -37 1 -28 -3 10 -14 18 -25 18 -12 0
-21 9 -25 28 -4 15 -13 36 -20 47 -16 22 -19 49 -5 40 5 -3 12 -1 15 4 12 20
-13 20 -93 1 -45 -11 -91 -20 -102 -20 -22 0 -23 -4 -9 -30 15 -29 21 -132 8
-147 -19 -23 -2 -135 24 -156 21 -18 67 -20 79 -4 3 5 22 10 42 12 39 4 80 22
74 33 -2 4 5 15 16 25 19 19 19 18 12 -4 -7 -21 -6 -22 9 -10 15 12 15 16 1
37 -20 32 -19 50 4 50 14 0 21 -9 26 -33 3 -18 3 -37 0 -42 -3 -5 4 -7 15 -4
14 4 20 0 20 -11 0 -9 7 -16 15 -16 10 0 12 6 8 18 -6 15 -5 15 10 4 9 -8 22
-10 29 -6 6 4 23 8 37 9 13 0 26 6 29 13 2 7 9 12 15 12 6 0 19 8 30 17 20 17
20 17 14 -1 -6 -14 -4 -17 9 -12 8 3 17 6 20 6 2 0 1 7 -2 15 -4 8 -1 15 5 15
6 0 11 8 11 18 0 13 2 14 9 4 6 -11 10 -10 15 4 4 9 2 22 -4 28 -5 5 -10 22
-10 37 0 15 -7 29 -16 33 -8 3 -12 10 -9 16 8 13 -18 40 -38 40 -28 0 -137
163 -118 174 4 3 6 18 3 34 -2 16 1 33 7 36 6 4 11 12 11 19 0 6 -6 2 -14 -9
-8 -10 -18 -16 -22 -12 -4 5 0 16 9 26 10 10 14 23 10 28 -5 5 4 -2 20 -15 15
-14 27 -20 27 -14 0 6 -5 13 -12 15 -8 3 -3 14 14 31 l27 27 -27 -5 c-24 -5
-23 -3 10 17 21 13 36 28 33 35 -2 7 6 20 19 30 12 10 29 30 36 43 13 25 13
25 -15 -2 -15 -15 -31 -25 -36 -22 -5 3 -33 -16 -63 -43 -60 -52 -68 -71 -13
-29 19 14 42 26 53 25 14 0 15 -2 4 -6 -8 -4 -37 -21 -64 -40 -26 -18 -61 -33
-76 -33 -15 0 -33 -7 -41 -16 -12 -15 -61 -44 -74 -44 -15 0 9 22 38 34 31 14
31 14 7 15 -22 1 -23 3 -7 12 9 5 21 8 25 5 4 -2 14 -1 22 5 11 6 7 9 -15 9
-16 0 -41 3 -55 6 -14 3 -21 2 -15 -3 27 -23 -5 -52 -36 -32 -11 7 -10 9 4 9
14 0 17 5 11 22 -6 21 -41 57 -56 58 -14 0 -60 111 -60 145 0 19 -4 32 -9 29
-17 -10 -31 7 -18 22 9 11 7 14 -14 14 -14 0 -28 4 -31 9 -10 16 49 6 65 -11
14 -16 17 -15 32 12 10 16 16 32 15 37 -1 4 3 18 10 31 8 13 9 22 3 22 -13 0
-33 -38 -26 -49 7 -12 -5 -41 -16 -41 -15 0 -10 24 15 74 14 27 22 55 19 62
-3 8 0 14 6 14 6 0 11 7 11 15 0 14 12 17 68 18 12 0 22 3 22 6 0 3 20 6 44 6
26 0 42 -4 39 -11 -2 -5 19 -21 48 -34 30 -14 66 -42 86 -67 20 -24 38 -41 42
-39 10 6 12 -119 2 -163 -10 -47 0 -61 21 -28 21 33 29 57 18 57 -6 0 -10 -6
-10 -14 0 -8 -4 -17 -9 -20 -14 -9 -1 32 15 45 11 9 18 8 32 -2 14 -11 15 -11
5 1 -15 17 -17 34 -3 25 6 -4 10 5 10 20 0 15 -4 24 -10 20 -5 -3 -10 -1 -10
4 0 6 7 11 16 11 28 0 46 27 34 50 -6 11 -8 20 -6 20 3 0 10 -9 16 -21 8 -14
8 -24 1 -33 -6 -7 -13 -34 -15 -60 -6 -60 -15 -88 -27 -81 -5 4 -9 -1 -9 -9 0
-9 4 -16 8 -16 14 0 49 45 45 57 -2 6 1 14 6 18 6 3 11 11 11 16 0 6 -4 7 -10
4 -5 -3 -10 -1 -10 5 0 7 6 10 14 7 16 -6 46 22 46 42 0 7 -9 3 -20 -10 -17
-21 -19 -22 -20 -6 0 10 5 28 11 39 9 17 13 18 20 7 8 -12 11 -12 19 1 5 8 8
20 5 27 -4 13 14 85 24 93 3 3 12 16 19 30 7 14 34 35 60 47 45 21 46 22 22
31 -20 8 -12 10 37 8 33 0 60 -3 58 -5 -4 -3 93 -71 102 -71 2 0 1 5 -3 12 -4
7 -3 8 4 4 7 -4 12 -13 12 -21 0 -19 39 -45 57 -38 11 4 9 8 -8 17 -12 6 -24
17 -27 24 -2 8 7 6 27 -5 17 -10 31 -21 31 -25 0 -5 16 -8 36 -8 27 0 37 5 41
20 3 11 9 17 14 14 13 -7 11 10 -2 23 -14 14 7 97 23 87 6 -4 9 -1 6 7 -3 8
-12 13 -20 11 -11 -2 -14 4 -10 23 4 25 22 36 22 13 0 -6 3 -9 6 -6 3 3 1 14
-4 25 -5 10 -15 30 -23 46 -7 15 -16 27 -21 27 -5 0 -7 -4 -3 -9 8 -13 -12
-24 -27 -14 -7 4 -22 6 -33 4 -16 -2 -17 0 -7 11 6 8 8 19 4 23 -4 5 1 5 10 2
10 -3 20 -2 24 4 3 6 -3 13 -14 16 -11 3 -23 11 -26 19 -5 12 -11 12 -38 -3
-18 -10 -41 -18 -51 -19 -34 -3 23 46 71 59 61 18 166 6 196 -22 22 -21 93
-31 81 -11 -3 5 -1 10 4 10 6 0 11 -4 11 -10 0 -5 5 -10 11 -10 5 0 7 4 4 10
-3 5 0 7 7 5 8 -3 24 5 36 18 25 27 42 97 23 97 -15 0 -14 47 2 53 8 4 9 8 1
14 -5 4 -18 25 -27 45 -22 46 -29 51 -61 38 -16 -6 -27 -6 -31 0 -4 6 0 10 8
10 8 0 28 7 43 16 28 15 27 15 -46 13 -58 -2 -74 0 -72 10 2 10 -4 12 -20 7
-13 -4 -43 -12 -68 -17 -24 -5 -49 -14 -54 -19 -16 -16 -24 -11 -22 15 0 14 4
25 8 25 3 0 15 3 25 7 16 6 16 5 4 -10 -7 -9 -9 -17 -3 -17 5 0 15 6 22 14 6
8 19 12 27 9 11 -4 14 -2 9 5 -6 11 5 17 27 13 4 0 7 3 7 9 0 5 -5 10 -12 10
-9 0 -9 3 0 12 7 7 12 21 11 33 0 20 0 20 -9 0 -7 -17 -9 -15 -9 12 -1 36 -17
53 -24 26 -3 -12 -5 -9 -6 8 0 15 -8 32 -16 39 -26 21 -16 31 15 15 38 -20 47
-19 28 3 -13 15 -18 25 -29 57 -3 11 -15 26 -42 57 -14 15 -25 18 -45 13 -15
-4 -40 -9 -55 -10 -15 -1 -33 -7 -39 -13 -15 -15 -3 -15 24 -1 21 11 21 11 -1
-17 -13 -16 -30 -29 -38 -29 -9 0 -24 -16 -34 -35 -11 -19 -19 -29 -19 -22 0
7 5 22 10 33 9 16 7 19 -8 19 -10 0 -27 -7 -38 -16 -18 -14 -18 -15 6 -4 l25
11 -24 -21 c-14 -12 -27 -17 -30 -11 -8 12 -34 9 -53 -6 -9 -8 -19 -9 -28 -3
-8 6 -26 10 -40 10 -14 0 -32 5 -40 11 -12 8 -9 10 13 6 43 -7 32 5 -36 41
-47 24 -68 41 -80 67 -10 22 -22 33 -30 29 -13 -5 -45 23 -39 35 2 3 -2 7 -9
10 -7 2 -9 -1 -5 -8 4 -6 3 -11 -3 -11 -5 0 -12 6 -14 13 -3 6 -6 2 -6 -9 -1
-13 12 -32 33 -48 19 -14 44 -43 57 -63 13 -21 29 -44 36 -51 7 -8 10 -19 6
-25 -5 -8 -8 -8 -11 1 -2 7 -10 12 -17 12 -7 0 -15 7 -19 15 -3 8 -9 15 -14
15 -11 0 -27 -90 -25 -140 1 -19 -1 -27 -4 -17 -4 15 -10 13 -45 -19 -55 -49
-122 -77 -185 -78 -45 0 -53 -3 -56 -20 -3 -16 -5 -14 -6 6 -1 21 -10 32 -41
48 -27 14 -45 32 -55 58 -13 30 -18 34 -26 22 -8 -12 -9 -9 -5 10 14 68 16 84
9 70 -13 -25 -30 -21 -25 5 3 20 1 23 -19 19 -13 -2 -18 -2 -11 2 17 8 15 24
-5 40 -17 12 -16 13 7 14 16 0 32 10 45 30 11 16 23 30 28 30 4 0 7 7 7 15 0
8 3 15 8 15 4 0 13 9 19 20 11 16 10 18 -1 14 -8 -3 -17 -1 -21 5 -3 6 0 11 7
12 56 3 69 6 80 17 9 9 9 12 -1 12 -8 0 -11 6 -7 15 3 8 1 15 -4 15 -6 0 -10
-5 -10 -12 0 -9 -3 -9 -12 0 -9 9 -10 17 -2 30 16 27 2 63 -20 50 -2 -2 -13 6
-25 16 -16 14 -18 22 -9 27 16 10 -9 40 -31 37 -10 -2 -17 5 -19 19 -4 25 -32
39 -44 21 -6 -10 -8 -8 -8 5 0 10 8 17 19 17 11 0 23 5 26 10 3 6 0 10 -8 10
-8 0 -26 11 -40 24 -17 16 -28 20 -31 13 -3 -7 -4 -3 -1 9 3 11 1 42 -4 69
-11 57 -3 77 43 117 17 15 25 27 17 28 -10 0 -11 3 -2 14 7 8 11 20 10 28 -2
7 3 31 9 52 6 22 9 42 7 45 -3 2 -5 -1 -5 -8 0 -7 -15 0 -35 15 -21 16 -35 21
-35 14 0 -8 -3 -10 -7 -7 -3 4 -13 1 -21 -6 -13 -9 -14 -9 -8 1 5 8 -1 12 -18
12 -14 0 -26 5 -26 10 0 15 -27 12 -44 -5z m-206 -395 c0 -5 -7 -7 -15 -4 -8
4 -15 8 -15 10 0 2 7 4 15 4 8 0 15 -4 15 -10z m23 -81 c-10 -3 -24 0 -31 8
-7 7 -19 13 -25 14 -7 1 -1 4 13 8 16 4 31 2 42 -8 17 -15 17 -16 1 -22z m27
31 c0 -5 -4 -10 -9 -10 -6 0 -13 5 -16 10 -3 6 1 10 9 10 9 0 16 -4 16 -10z
m-161 -82 c-8 -14 -14 -18 -17 -10 -4 13 17 46 25 38 3 -2 -1 -15 -8 -28z m55
23 c4 -5 -3 -7 -14 -4 -23 6 -26 13 -6 13 8 0 17 -4 20 -9z m61 -41 c8 -13 -5
-13 -25 0 -13 8 -13 10 2 10 9 0 20 -4 23 -10z m474 -93 c15 -19 2 -29 -15
-12 -8 7 -14 16 -14 19 0 11 17 6 29 -7z m-785 -22 c3 -9 0 -15 -9 -15 -9 0
-12 6 -9 15 4 8 7 15 9 15 2 0 5 -7 9 -15z m369 -33 c-3 -12 -9 -19 -14 -16
-5 3 -4 14 2 25 13 26 20 21 12 -9z m-323 14 c0 -3 -4 -8 -10 -11 -5 -3 -10
-1 -10 4 0 6 5 11 10 11 6 0 10 -2 10 -4z m-45 -48 c-4 -18 -12 -37 -17 -43
-7 -7 -9 -1 -4 18 9 36 -9 35 -57 -4 -43 -36 -71 -35 -34 1 20 20 69 44 115
59 2 1 1 -14 -3 -31z m313 -15 c-10 -2 -26 -2 -35 0 -10 3 -2 5 17 5 19 0 27
-2 18 -5z m886 -49 c9 -24 2 -26 -12 -4 -7 11 -8 20 -3 20 5 0 12 -7 15 -16z
m-1264 -5 c0 -3 -11 -9 -25 -11 -25 -5 -35 7 -12 15 19 6 37 4 37 -4z m-70 -3
c0 -2 -7 -9 -15 -16 -12 -10 -15 -10 -15 4 0 9 7 16 15 16 8 0 15 -2 15 -4z
m180 -30 c0 -3 -4 -8 -10 -11 -5 -3 -10 -1 -10 4 0 6 5 11 10 11 6 0 10 -2 10
-4z m-247 -13 c-7 -2 -21 -2 -30 0 -10 3 -4 5 12 5 17 0 24 -2 18 -5z m1914
-9 c-3 -3 -12 -4 -19 -1 -8 3 -5 6 6 6 11 1 17 -2 13 -5z m-1817 -74 c0 -5 -5
-10 -11 -10 -5 0 -7 5 -4 10 3 6 8 10 11 10 2 0 4 -4 4 -10z m-34 -27 c-10
-10 -19 5 -10 18 6 11 8 11 12 0 2 -7 1 -15 -2 -18z m161 -25 c-3 -8 -6 -5 -6
6 -1 11 2 17 5 13 3 -3 4 -12 1 -19z m-113 -38 c22 -5 60 -23 85 -41 25 -18
52 -32 59 -32 6 0 12 -6 12 -13 0 -6 8 -11 18 -10 12 1 16 -5 14 -19 -2 -11
-9 -23 -15 -27 -5 -3 -12 -34 -14 -69 -2 -34 -13 -80 -24 -102 -24 -51 -24
-61 1 -54 11 3 18 1 14 -4 -3 -5 -18 -9 -33 -9 -15 0 -43 -8 -62 -17 -45 -22
-123 -28 -192 -13 -48 10 -63 18 -99 59 -41 45 -43 51 -46 119 -3 74 17 142
56 186 43 48 137 67 226 46z m1296 -80 c0 -5 -2 -10 -4 -10 -3 0 -8 5 -11 10
-3 6 -1 10 4 10 6 0 11 -4 11 -10z m462 -29 c8 11 9 10 4 -3 -4 -12 0 -18 12
-19 14 0 14 -2 -2 -8 -18 -7 -18 -8 -2 -14 25 -10 84 -9 104 2 9 4 31 11 47
15 59 14 4 -21 -58 -38 -50 -12 -65 -13 -103 -1 -24 7 -44 10 -44 7 0 -3 -5
-1 -12 6 -7 7 -16 12 -22 12 -5 0 -7 -3 -3 -6 3 -3 -3 -16 -14 -27 -11 -12
-15 -23 -9 -27 5 -3 7 -23 3 -43 -6 -40 -14 -42 -19 -5 -2 13 -8 37 -13 53
-10 28 -11 28 -8 3 3 -19 0 -25 -10 -21 -7 3 -13 -2 -13 -12 0 -9 -4 -14 -8
-11 -12 7 -13 65 -1 88 8 16 8 22 -2 28 -7 5 12 11 47 15 32 4 64 8 69 9 6 2
18 -1 29 -6 13 -7 21 -6 28 3z m-264 -166 c-3 -3 -9 2 -12 12 -6 14 -5 15 5 6
7 -7 10 -15 7 -18z m49 3 c-3 -8 -6 -5 -6 6 -1 11 2 17 5 13 3 -3 4 -12 1 -19z
m25 -20 c-9 -9 -12 -7 -12 12 0 19 3 21 12 12 9 -9 9 -15 0 -24z m59 0 c1 -7
1 -40 0 -72 -1 -37 4 -63 11 -67 24 -15 -2 -22 -29 -8 -25 13 -28 20 -30 69
-2 43 0 50 7 32 6 -13 7 -29 4 -35 -3 -7 2 -3 10 7 17 22 22 71 6 61 -6 -3 -7
1 -4 9 7 19 24 21 25 4z m-1891 -68 c0 -13 -1 -13 -10 0 -5 8 -10 22 -10 30 0
13 1 13 10 0 5 -8 10 -22 10 -30z m-103 -2 c-3 -8 -6 -5 -6 6 -1 11 2 17 5 13
3 -3 4 -12 1 -19z m1706 2 c3 -11 1 -23 -4 -26 -5 -3 -9 6 -9 20 0 31 6 34 13
6z m328 -24 c5 3 9 -4 9 -15 0 -12 -4 -21 -10 -21 -6 0 -6 -9 0 -25 5 -14 6
-25 1 -25 -5 0 -18 -3 -28 -6 -17 -5 -17 -5 -1 6 14 8 17 21 14 58 -2 26 -2
41 1 34 3 -6 9 -10 14 -6z m-81 -66 c13 -8 13 -10 -2 -10 -9 0 -20 5 -23 10
-8 13 5 13 25 0z m-1830 -54 c0 -2 -7 -9 -15 -16 -13 -11 -14 -10 -9 4 5 14
24 23 24 12z m2033 -51 c-3 -9 -8 -14 -10 -11 -3 3 -2 9 2 15 9 16 15 13 8 -4z
m-2013 -11 c0 -8 -5 -12 -10 -9 -6 4 -8 11 -5 16 9 14 15 11 15 -7z m-100 2
c0 -2 -7 -7 -16 -10 -8 -3 -12 -2 -9 4 6 10 25 14 25 6z m-203 -53 c-3 -10 -5
-4 -5 12 0 17 2 24 5 18 2 -7 2 -21 0 -30z m225 -14 c-16 -25 -6 -45 14 -28
11 9 14 8 14 -3 0 -8 8 -23 18 -34 13 -13 16 -26 11 -39 -7 -19 -8 -19 -8 1
-1 23 -24 58 -40 60 -6 1 -15 2 -21 3 -13 1 -13 38 1 46 6 4 8 14 4 24 -5 13
-4 14 7 3 10 -10 10 -16 0 -33z m178 15 c0 -8 -4 -12 -10 -9 -5 3 -10 10 -10
16 0 5 5 9 10 9 6 0 10 -7 10 -16z m-73 -66 c-3 -8 -6 -5 -6 6 -1 11 2 17 5
13 3 -3 4 -12 1 -19z m487 -34 c26 6 37 -7 14 -18 -7 -3 -3 -3 9 0 32 8 123
-55 150 -103 16 -30 20 -53 19 -108 -2 -61 -20 -135 -30 -124 -2 2 0 31 5 64
7 49 5 66 -10 95 -9 19 -27 39 -39 45 -12 5 -22 13 -22 17 0 5 -5 8 -12 8 -6
0 -19 7 -29 16 -27 24 -112 20 -196 -9 -18 -6 -30 -14 -27 -19 7 -12 -16 -49
-27 -43 -5 4 -10 -4 -10 -17 -1 -13 -3 -34 -4 -48 -3 -29 22 -120 33 -120 4 0
12 -10 17 -22 6 -13 15 -23 20 -24 6 0 18 -4 27 -8 9 -4 21 -5 26 -2 6 3 24 3
42 0 22 -5 29 -11 25 -22 -4 -12 1 -14 32 -9 21 3 49 9 63 13 21 6 23 5 12 -7
-9 -10 -39 -14 -100 -14 -76 0 -91 3 -122 25 -19 13 -37 28 -38 33 -2 4 -11 2
-20 -5 -15 -11 -15 -11 -5 3 10 13 9 23 -7 54 -23 44 -26 117 -8 176 14 47 68
114 112 136 17 9 37 25 45 36 10 14 16 16 21 7 5 -8 18 -10 34 -6z m743 -36
c-3 -8 -6 -5 -6 6 -1 11 2 17 5 13 3 -3 4 -12 1 -19z m143 8 c0 -3 -4 -8 -10
-11 -5 -3 -10 -1 -10 4 0 6 5 11 10 11 6 0 10 -2 10 -4z m-1485 -46 c3 0 10
10 15 23 l9 22 0 -22 c1 -21 21 -44 21 -24 0 6 5 11 11 11 8 0 8 -4 0 -14 -10
-11 -8 -16 6 -24 10 -6 15 -14 10 -18 -4 -4 -16 1 -26 10 -11 10 -25 18 -33
20 -7 1 -18 5 -24 9 -8 4 -14 -3 -18 -19 -4 -15 -10 -24 -13 -20 -3 3 0 24 7
47 12 36 15 38 22 20 4 -12 10 -21 13 -21z m1461 -27 c-10 -26 -18 -8 -9 23 5
21 8 24 11 11 2 -10 1 -25 -2 -34z m-1690 18 c-4 -6 -14 -7 -23 -4 -15 6 -14
7 3 13 22 9 29 6 20 -9z m1799 -68 c-24 -50 -57 -88 -41 -47 4 10 9 24 10 29
1 6 9 21 19 35 9 13 17 31 17 39 0 10 3 12 10 5 7 -7 2 -27 -15 -61z m104 19
c-6 -18 -17 -32 -24 -32 -14 0 -29 29 -20 38 3 3 5 0 5 -6 0 -21 16 -13 29 14
16 36 24 25 10 -14z m-569 19 c0 -5 -7 -12 -16 -15 -14 -5 -15 -4 -4 9 14 17
20 19 20 6z m-1090 -99 c7 -23 11 -45 8 -48 -4 -3 -9 8 -13 25 -5 26 -11 30
-30 27 -18 -3 -22 -1 -18 11 4 11 8 11 13 3 11 -17 22 4 14 27 -5 12 -4 15 3
8 5 -5 16 -29 23 -53z m435 -102 c3 -5 1 -10 -4 -10 -6 0 -11 5 -11 10 0 6 2
10 4 10 3 0 8 -4 11 -10z m293 -79 c-7 -11 -19 -23 -26 -26 -7 -3 -3 8 10 24
26 32 36 34 16 2z m-418 -6 c0 -8 18 -24 39 -35 41 -21 57 -37 47 -47 -3 -4
-15 3 -26 15 -20 21 -40 29 -40 16 0 -4 8 -13 18 -20 9 -7 12 -14 5 -14 -6 0
-15 5 -18 10 -4 6 -11 7 -17 4 -6 -4 -8 -2 -5 3 6 9 -37 33 -65 37 -23 3 0 42
27 48 25 6 35 1 35 -17z m620 -58 c8 -3 0 -6 -17 -6 -18 -1 -33 3 -33 8 0 12
23 20 30 11 3 -4 12 -10 20 -13z m60 8 c-10 -12 -16 -13 -26 -4 -20 16 -18 19
12 19 22 0 25 -2 14 -15z m-544 -50 c19 -19 53 -19 60 -1 6 16 30 11 52 -11
15 -15 17 -15 -65 -17 -36 -1 -59 2 -56 8 3 5 -2 15 -12 23 -11 7 -13 13 -6
13 7 0 19 -7 27 -15z m-526 -5 c0 -5 -9 -10 -21 -10 -11 0 -17 5 -14 10 3 6
13 10 21 10 8 0 14 -4 14 -10z m30 -21 c0 -6 -4 -7 -10 -4 -5 3 -10 11 -10 16
0 6 5 7 10 4 6 -3 10 -11 10 -16z m1090 11 c0 -5 -2 -10 -4 -10 -3 0 -8 5 -11
10 -3 6 -1 10 4 10 6 0 11 -4 11 -10z m104 -19 c3 -5 -1 -11 -9 -14 -9 -4 -12
-1 -8 9 6 16 10 17 17 5z m-447 -7 c-3 -3 -12 -4 -19 -1 -8 3 -5 6 6 6 11 1
17 -2 13 -5z m-189 -25 c2 -5 8 -9 13 -9 6 0 8 4 5 9 -3 5 3 11 14 14 25 6 26
-4 1 -25 -14 -12 -22 -13 -30 -5 -7 7 -26 18 -44 24 l-32 13 35 -6 c19 -4 37
-10 38 -15z m557 2 c-3 -6 -16 -11 -28 -11 -21 0 -21 1 3 13 27 15 36 14 25
-2z m112 -6 c-7 -14 -18 -25 -24 -25 -7 0 -13 -7 -13 -15 0 -10 -10 -15 -29
-15 -39 0 -48 16 -19 31 21 11 22 11 9 -4 -12 -15 -11 -17 3 -17 9 0 16 8 16
20 0 11 5 17 13 15 7 -3 19 4 27 15 20 28 30 25 17 -5z m-572 -5 c3 -5 -1 -10
-9 -10 -8 0 -18 5 -21 10 -3 6 1 10 9 10 8 0 18 -4 21 -10z m565 -77 c-77 -20
-82 -20 -87 -3 -3 11 -2 11 4 3 7 -9 18 -9 48 2 22 8 51 14 65 13 14 0 2 -6
-30 -15z m-7 -40 c-7 -2 -19 -2 -25 0 -7 3 -2 5 12 5 14 0 19 -2 13 -5z"/>
<path d="M1766 2226 c-33 -26 -24 -40 15 -23 19 9 25 17 20 29 -6 16 -9 16
-35 -6z"/>
<path d="M1860 2232 c-15 -2 -30 -12 -35 -25 -8 -17 -19 -22 -47 -23 -47 -1
-78 -27 -79 -68 0 -26 -2 -28 -9 -11 -7 18 -9 18 -19 -9 -20 -49 -3 -100 29
-88 11 4 11 2 -2 -12 -22 -21 -21 -16 -2 -54 15 -31 31 -45 21 -19 -3 8 1 14
9 14 7 0 11 -3 9 -7 -6 -9 18 -60 27 -60 5 0 7 3 7 8 -3 20 3 24 19 10 21 -20
91 -40 106 -30 6 3 20 6 31 5 11 -2 14 0 8 3 -23 10 -14 23 20 26 23 2 32 8
31 20 -1 10 7 20 17 23 23 8 32 41 33 115 1 30 4 57 8 60 4 3 -14 29 -40 57
-33 36 -56 53 -77 55 -16 2 -32 5 -35 8 -3 3 -16 4 -30 2z m-170 -177 c0 -8
-4 -15 -10 -15 -5 0 -7 7 -4 15 4 8 8 15 10 15 2 0 4 -7 4 -15z"/>
<path d="M2007 1923 c-15 -14 -6 -25 10 -12 15 12 16 12 10 -4 -4 -11 -3 -16
3 -12 15 9 12 35 -3 35 -8 0 -17 -3 -20 -7z"/>
<path d="M3582 2120 c0 -14 2 -19 5 -12 2 6 2 18 0 25 -3 6 -5 1 -5 -13z"/>
<path d="M3640 2136 c0 -2 8 -10 18 -17 15 -13 16 -12 3 4 -13 16 -21 21 -21
13z"/>
<path d="M2140 1110 c0 -6 7 -10 15 -10 8 0 15 2 15 4 0 2 -7 6 -15 10 -8 3
-15 1 -15 -4z"/>
<path d="M1945 1110 c3 -5 8 -10 11 -10 2 0 4 5 4 10 0 6 -5 10 -11 10 -5 0
-7 -4 -4 -10z"/>
<path d="M3284 3158 c-3 -4 -14 -8 -25 -8 -12 0 -19 -5 -16 -12 2 -7 10 -12
16 -10 6 1 11 -2 11 -8 0 -5 -12 -12 -27 -16 -51 -10 -73 -23 -73 -43 0 -11 4
-23 10 -26 6 -4 4 -16 -6 -31 -9 -13 -13 -24 -8 -24 4 0 -3 -11 -15 -24 l-22
-23 53 -47 c29 -25 56 -46 59 -46 9 0 65 64 71 82 3 7 8 11 11 8 9 -9 -57
-100 -78 -106 -11 -4 -27 -13 -36 -20 -12 -11 -23 -12 -43 -4 -35 13 -59 13
-51 0 3 -5 15 -10 26 -10 10 0 19 -4 19 -10 0 -5 7 -10 15 -10 24 0 18 -19
-10 -32 -18 -8 -31 -8 -48 -1 -40 20 -59 24 -55 11 2 -6 23 -18 46 -27 25 -9
41 -20 38 -27 -3 -7 6 -15 20 -18 13 -4 24 -11 24 -17 0 -6 -9 -8 -22 -4 -19
5 -18 2 10 -22 18 -15 32 -35 32 -43 1 -8 7 -24 15 -34 8 -11 15 -16 15 -11 0
12 62 -54 75 -80 6 -11 25 -27 42 -35 18 -8 33 -22 33 -30 0 -8 11 -20 25 -27
29 -13 31 -11 9 11 -9 9 -17 33 -19 53 -2 33 -1 35 11 18 11 -15 14 -16 14 -3
0 8 -9 25 -20 38 -11 13 -20 27 -20 32 0 5 -4 7 -9 3 -5 -3 -11 3 -13 12 -4
22 6 101 15 109 9 9 37 -22 37 -41 0 -9 4 -14 9 -11 5 3 11 -4 15 -17 5 -18 8
-20 16 -7 9 13 10 13 10 -1 0 -8 6 -23 13 -34 13 -16 14 -15 10 12 -4 25 2 39
30 69 19 22 50 48 69 58 24 15 17 5 -27 -36 -54 -50 -60 -59 -59 -95 1 -38 37
-123 52 -123 5 0 19 14 31 31 13 17 48 42 80 57 31 14 59 30 63 35 7 11 -16
83 -34 104 -8 10 -2 21 28 49 35 31 36 34 14 29 -14 -3 -1 6 28 20 63 32 74
60 43 104 -12 16 -21 33 -21 38 0 4 -12 22 -27 38 -16 16 -28 33 -28 38 0 12
-28 27 -52 27 -13 0 -23 5 -23 10 0 6 5 10 10 10 18 0 11 18 -9 23 -31 8 -31
0 0 -56 34 -62 39 -127 11 -155 -32 -32 -92 -75 -98 -70 -3 3 18 22 46 43 33
24 49 43 46 52 -3 8 -6 21 -6 29 0 9 -4 13 -9 9 -5 -3 -13 0 -16 5 -4 6 -17
15 -29 20 -13 4 -31 25 -40 45 -11 23 -28 40 -47 47 -16 5 -29 14 -29 19 0 5
-12 9 -27 10 l-28 0 25 11 c23 10 23 11 5 16 -12 2 -26 -4 -37 -18 -10 -12
-24 -20 -32 -17 -7 3 -19 0 -25 -6 -6 -6 -11 -7 -11 -3 0 5 -7 3 -15 -4 -29
-24 -15 1 26 45 35 38 39 47 29 64 -6 12 -16 21 -23 21 -7 0 -19 6 -25 13 -15
14 -61 17 -68 5z m122 -158 c9 0 3 -11 -16 -30 -31 -30 -50 -38 -50 -21 0 12
29 41 40 41 5 0 8 6 6 13 -1 6 -1 9 1 5 3 -5 11 -8 19 -8z m139 -41 c11 -17
-1 -21 -15 -4 -8 9 -8 15 -2 15 6 0 14 -5 17 -11z m5 -209 c0 -5 -8 -10 -17
-10 -15 0 -16 2 -3 10 19 12 20 12 20 0z m120 -80 c0 -5 -4 -10 -10 -10 -5 0
-10 5 -10 10 0 6 5 10 10 10 6 0 10 -4 10 -10z m7 -132 c-3 -8 -6 -5 -6 6 -1
11 2 17 5 13 3 -3 4 -12 1 -19z m-287 -80 c0 -18 -2 -20 -9 -8 -6 8 -7 18 -5
22 9 14 14 9 14 -14z"/>
<path d="M2245 3144 c-9 -9 -13 -19 -10 -22 3 -3 11 0 17 6 14 14 32 16 24 4
-3 -5 9 -6 26 -4 l31 5 -24 13 c-32 18 -44 17 -64 -2z"/>
<path d="M1390 3132 c0 -17 -60 -72 -78 -72 -7 0 -12 -8 -10 -17 2 -13 -5 -19
-22 -21 -14 -2 -36 -18 -51 -38 -23 -30 -25 -38 -15 -59 6 -14 16 -25 22 -25
6 0 17 -11 24 -25 7 -14 20 -25 27 -25 7 0 16 -7 19 -15 4 -8 13 -15 21 -15 8
0 12 -4 8 -9 -7 -12 43 -51 66 -51 30 0 22 19 -16 42 -20 11 -34 23 -31 25 3
3 18 -4 34 -16 17 -12 34 -21 39 -21 11 0 65 -55 65 -67 0 -4 4 -7 9 -6 4 2
14 -7 20 -20 12 -21 11 -21 -6 -7 -17 14 -18 14 -6 -9 8 -14 11 -41 8 -65 l-5
-41 18 35 c11 19 17 44 14 55 -5 18 -4 19 9 3 13 -16 15 -16 32 0 10 9 15 11
11 5 -4 -7 -5 -13 -2 -13 3 0 18 19 32 43 15 23 35 48 44 54 10 7 27 30 38 52
18 35 19 40 5 45 -9 4 -18 4 -21 1 -3 -3 -1 -5 5 -5 6 0 9 -9 6 -21 -6 -21 -7
-21 -20 -3 -8 10 -17 19 -21 19 -14 1 -63 53 -53 57 6 1 -7 22 -29 46 -22 24
-40 51 -40 60 0 22 -62 92 -82 92 -9 0 -18 9 -21 20 -6 22 -27 28 -27 8 0 -9
-4 -8 -10 2 -7 11 -10 11 -10 2z"/>
<path d="M1531 3064 c0 -11 3 -14 6 -6 3 7 2 16 -1 19 -3 4 -6 -2 -5 -13z"/>
<path d="M1797 2989 c-11 -6 -25 -27 -33 -45 -8 -19 -18 -32 -23 -29 -10 5
-25 -25 -16 -33 3 -3 5 -1 5 4 0 5 16 18 35 28 19 10 37 27 40 37 4 11 20 21
41 25 19 3 34 10 34 15 0 12 -61 11 -83 -2z"/>
<path d="M2195 2950 c-3 -5 -2 -10 4 -10 5 0 13 5 16 10 3 6 2 10 -4 10 -5 0
-13 -4 -16 -10z"/>
<path d="M2268 2923 c7 -3 16 -2 19 1 4 3 -2 6 -13 5 -11 0 -14 -3 -6 -6z"/>
<path d="M1800 2882 c-18 -11 -36 -25 -38 -33 -2 -9 -1 -10 5 -3 4 5 23 16 41
23 17 8 32 17 32 22 0 12 0 12 -40 -9z"/>
<path d="M2710 2875 c14 -8 30 -14 35 -14 6 0 -1 6 -15 14 -14 8 -29 14 -35
14 -5 0 1 -6 15 -14z"/>
<path d="M2228 2873 c-20 -5 -23 -18 -8 -28 13 -8 52 14 45 26 -6 9 -9 10 -37
2z"/>
<path d="M2136 2853 c-14 -14 -5 -31 14 -26 11 3 20 9 20 13 0 10 -26 20 -34
13z"/>
<path d="M2185 2840 c-3 -5 -1 -10 4 -10 6 0 11 5 11 10 0 6 -2 10 -4 10 -3 0
-8 -4 -11 -10z"/>
<path d="M2760 2839 c0 -10 44 -23 60 -17 5 1 -6 8 -25 14 -19 6 -35 7 -35 3z"/>
<path d="M2980 2830 c6 -11 13 -20 16 -20 2 0 0 9 -6 20 -6 11 -13 20 -16 20
-2 0 0 -9 6 -20z"/>
<path d="M2900 2811 c0 -5 -10 -7 -22 -5 -16 3 -13 0 8 -11 18 -8 41 -25 52
-39 23 -29 36 -24 19 7 -11 20 -46 57 -54 57 -1 0 -3 -4 -3 -9z"/>
<path d="M3040 2806 c0 -2 7 -7 16 -10 8 -3 12 -2 9 4 -6 10 -25 14 -25 6z"/>
<path d="M2131 2784 c-18 -13 -20 -18 -10 -25 10 -6 11 -9 2 -9 -7 0 -13 -11
-13 -25 0 -34 22 -23 47 25 28 51 18 64 -26 34z"/>
<path d="M2843 2755 c26 -26 52 -43 57 -40 6 4 -1 15 -16 27 -20 16 -23 23
-12 30 10 8 10 9 -2 5 -8 -2 -21 2 -28 10 -7 7 -21 13 -30 13 -11 0 0 -15 31
-45z"/>
<path d="M2984 2771 c21 -23 26 -26 26 -11 0 5 -10 15 -22 21 -23 12 -23 12
-4 -10z"/>
<path d="M3010 2726 c0 -2 7 -7 16 -10 8 -3 12 -2 9 4 -6 10 -25 14 -25 6z"/>
<path d="M1719 2699 l-24 -20 28 17 c15 9 27 18 27 20 0 8 -8 4 -31 -17z"/>
<path d="M1963 2700 c-13 -5 -23 -12 -23 -15 0 -10 27 -5 46 10 21 16 11 18
-23 5z"/>
<path d="M1795 2670 c-15 -16 -33 -26 -39 -23 -6 3 -7 2 -3 -2 14 -16 38 -14
44 3 3 9 13 25 21 35 25 28 8 19 -23 -13z"/>
<path d="M1900 2690 c-12 -7 -10 -9 7 -7 12 0 19 5 17 9 -6 10 -6 10 -24 -2z"/>
<path d="M2890 2681 c0 -6 9 -15 20 -21 13 -7 20 -7 20 -1 0 6 -9 15 -20 21
-13 7 -20 7 -20 1z"/>
<path d="M2960 2670 c-13 -8 -11 -13 10 -34 18 -18 29 -23 39 -16 12 7 10 11
-12 21 -33 15 -36 33 -4 24 17 -5 19 -4 7 4 -18 13 -21 13 -40 1z"/>
<path d="M3040 2660 c14 -10 27 -16 30 -13 6 6 -30 33 -44 33 -6 0 0 -9 14
-20z"/>
<path d="M1875 2660 c-3 -5 -1 -10 4 -10 6 0 11 5 11 10 0 6 -2 10 -4 10 -3 0
-8 -4 -11 -10z"/>
<path d="M1904 2636 c-4 -11 -10 -13 -18 -7 -8 7 -16 4 -25 -11 -8 -12 -8 -18
-1 -13 6 4 22 8 36 10 32 3 41 12 26 27 -9 9 -13 7 -18 -6z"/>
<path d="M1715 2620 c-21 -23 -9 -26 18 -6 10 8 14 17 9 20 -5 3 -17 -3 -27
-14z"/>
<path d="M1824 2629 c-3 -6 -2 -15 4 -21 6 -6 11 -2 15 11 5 22 -7 29 -19 10z"/>
<path d="M2900 2615 c-10 -12 -9 -16 5 -21 23 -9 40 10 22 25 -11 9 -17 8 -27
-4z"/>
<path d="M3085 2620 c3 -5 8 -10 11 -10 2 0 4 5 4 10 0 6 -5 10 -11 10 -5 0
-7 -4 -4 -10z"/>
<path d="M3130 2622 c0 -10 21 -32 32 -32 16 0 8 19 -12 30 -11 6 -20 7 -20 2z"/>
<path d="M1292 2567 c-37 -38 -44 -61 -8 -28 14 13 30 20 36 16 6 -4 17 -2 24
4 7 6 21 9 30 5 10 -4 16 -1 16 9 0 8 6 18 13 20 6 3 1 6 -12 6 -14 1 -36 -9
-49 -21 l-24 -23 6 23 c10 29 6 28 -32 -11z"/>
<path d="M946 2567 c-24 -17 -38 -46 -16 -32 17 10 11 -10 -14 -56 -14 -24
-28 -63 -32 -85 -5 -36 -3 -44 17 -58 16 -11 19 -16 9 -17 -8 0 -1 -7 15 -14
17 -7 44 -11 60 -9 24 4 26 3 10 -5 -19 -8 -18 -10 10 -21 17 -7 25 -14 18
-17 -7 -2 -15 -20 -19 -39 -3 -19 -10 -34 -15 -34 -5 0 -9 -7 -9 -16 0 -8 5
-12 11 -8 8 4 9 -1 4 -17 -9 -30 -9 -28 0 -66 9 -39 28 -57 54 -50 11 3 22 0
23 -5 7 -19 106 -22 126 -5 9 8 28 17 42 19 24 3 25 7 28 77 3 78 -13 121 -44
121 -9 0 -23 9 -32 19 -10 12 -31 21 -52 21 -52 3 -56 1 -36 -13 15 -11 12
-12 -24 -9 -33 3 -39 7 -29 18 6 8 8 14 3 15 -5 0 2 5 15 10 16 6 28 6 35 -1
5 -5 24 -10 40 -10 17 0 50 -11 74 -25 26 -15 42 -19 42 -12 0 7 -16 21 -34
31 -44 23 -66 69 -66 137 0 36 -6 59 -17 72 -17 19 -17 20 5 8 12 -6 22 -8 22
-2 0 5 -7 11 -15 15 -8 3 -15 12 -15 20 0 19 -16 28 -58 33 -30 3 -33 2 -23
-11 11 -13 9 -13 -18 -3 -21 8 -27 14 -20 23 17 21 -46 22 -75 1z m105 -525
c-7 -2 -18 1 -23 6 -8 8 -4 9 13 5 13 -4 18 -8 10 -11z"/>
<path d="M3055 2580 c3 -5 8 -10 11 -10 2 0 4 5 4 10 0 6 -5 10 -11 10 -5 0
-7 -4 -4 -10z"/>
<path d="M2180 2571 c0 -6 4 -13 10 -16 6 -3 7 1 4 9 -7 18 -14 21 -14 7z"/>
<path d="M3085 2570 c3 -5 11 -10 16 -10 6 0 7 5 4 10 -3 6 -11 10 -16 10 -6
0 -7 -4 -4 -10z"/>
<path d="M3185 2570 c3 -5 8 -10 11 -10 2 0 4 5 4 10 0 6 -5 10 -11 10 -5 0
-7 -4 -4 -10z"/>
<path d="M1549 2553 c-13 -16 -12 -17 4 -4 9 7 17 15 17 17 0 8 -8 3 -21 -13z"/>
<path d="M2983 2557 c9 -8 17 -19 17 -26 0 -6 6 -11 14 -11 17 0 66 -45 66
-61 0 -7 -11 0 -25 15 -22 23 -37 31 -49 24 -3 -2 -15 7 -29 20 -39 37 -127
18 -143 -30 -4 -13 -13 -27 -20 -33 -35 -28 -35 -116 1 -171 8 -13 15 -30 15
-37 0 -8 9 -22 20 -32 11 -10 20 -13 20 -7 0 6 -4 14 -10 17 -5 3 -10 10 -10
15 0 4 13 -4 30 -20 27 -25 80 -46 80 -31 0 3 16 6 35 5 47 -1 105 18 105 34
0 7 4 11 9 8 11 -7 44 61 37 77 -3 9 -5 8 -5 -1 -1 -7 -6 -10 -11 -7 -15 9 -2
25 20 25 24 0 16 31 -16 61 -30 28 -31 44 -3 29 28 -16 36 -4 14 20 -10 11
-15 20 -11 20 17 0 -30 52 -58 64 -17 7 -44 19 -61 27 -46 20 -52 22 -32 6z
m-108 -57 c3 -6 -1 -7 -9 -4 -18 7 -21 14 -7 14 6 0 13 -4 16 -10z m185 -70
c14 -11 21 -20 17 -20 -11 0 -67 29 -67 35 0 11 27 3 50 -15z m-221 -135 c0
-5 -6 1 -14 15 -8 14 -14 30 -14 35 0 6 6 -1 14 -15 8 -14 14 -29 14 -35z"/>
<path d="M1705 2550 c4 -6 11 -8 16 -5 14 9 11 15 -7 15 -8 0 -12 -5 -9 -10z"/>
<path d="M1250 2444 c0 -9 5 -14 12 -12 18 6 21 28 4 28 -9 0 -16 -7 -16 -16z"/>
<path d="M1197 2417 c-4 -10 -7 -33 -6 -50 l1 -32 9 33 c12 40 8 79 -4 49z"/>
<path d="M1232 2400 c0 -14 2 -19 5 -12 2 6 2 18 0 25 -3 6 -5 1 -5 -13z"/>
<path d="M1222 2350 c0 -14 2 -19 5 -12 2 6 2 18 0 25 -3 6 -5 1 -5 -13z"/>
<path d="M4050 2122 c0 -4 9 -26 21 -48 l20 -39 -5 33 c-5 30 -36 77 -36 54z"/>
<path d="M1416 2103 c-6 -14 -5 -15 5 -6 7 7 10 15 7 18 -3 3 -9 -2 -12 -12z"/>
<path d="M1446 2098 c-8 -24 -15 -73 -10 -60 3 6 10 10 15 6 5 -3 9 11 9 30 0
36 -7 47 -14 24z"/>
<path d="M1421 1985 c0 -11 6 -29 14 -39 20 -26 20 0 0 34 -13 22 -14 23 -14
5z"/>
<path d="M1441 1854 c0 -11 3 -14 6 -6 3 7 2 16 -1 19 -3 4 -6 -2 -5 -13z"/>
<path d="M1421 1843 c-1 -13 -5 -23 -11 -23 -5 0 -9 -15 -9 -32 1 -20 3 -25 6
-13 2 11 9 30 15 42 6 11 8 27 5 35 -3 7 -6 3 -6 -9z"/>
<path d="M3820 1770 c0 -5 5 -10 11 -10 5 0 7 5 4 10 -3 6 -8 10 -11 10 -2 0
-4 -4 -4 -10z"/>
<path d="M1100 1747 c-27 -13 -80 -60 -80 -71 0 -3 8 -6 19 -6 10 0 24 -7 31
-15 8 -10 23 -14 39 -11 14 3 45 8 69 11 44 7 102 47 102 70 0 23 -142 40
-180 22z m5 -47 c-24 -26 -32 -18 -9 9 10 11 20 18 23 16 2 -3 -4 -14 -14 -25z
m105 5 c-7 -9 -15 -13 -18 -10 -3 2 1 11 8 20 7 9 15 13 18 10 3 -2 -1 -11 -8
-20z"/>
<path d="M1537 1743 c-4 -3 -7 -11 -7 -17 0 -6 5 -5 12 2 6 6 9 14 7 17 -3 3
-9 2 -12 -2z"/>
<path d="M3862 1630 c0 -14 2 -19 5 -12 2 6 2 18 0 25 -3 6 -5 1 -5 -13z"/>
<path d="M3901 1614 c0 -11 3 -14 6 -6 3 7 2 16 -1 19 -3 4 -6 -2 -5 -13z"/>
<path d="M3837 1589 c7 -7 15 -10 18 -7 3 3 -2 9 -12 12 -14 6 -15 5 -6 -5z"/>
<path d="M3511 1563 c-1 -6 -4 -20 -7 -30 -5 -17 -5 -17 6 0 6 10 9 23 6 30
-3 9 -5 9 -5 0z"/>
<path d="M3825 1561 c-3 -5 -2 -12 3 -15 5 -3 9 1 9 9 0 17 -3 19 -12 6z"/>
<path d="M3532 1528 c-10 -30 -10 -31 3 -14 13 17 21 46 12 46 -1 0 -8 -15
-15 -32z"/>
<path d="M3905 1513 c-24 -43 -68 -73 -110 -73 -77 0 -193 53 -194 88 -1 20
-21 13 -21 -8 0 -11 -10 -38 -22 -61 -24 -47 -17 -59 39 -59 17 0 35 -4 38
-10 5 -9 -36 -6 -72 6 -7 2 -13 -4 -13 -12 0 -11 6 -13 20 -9 11 4 33 0 49 -8
18 -9 34 -11 44 -5 23 12 94 -25 103 -54 8 -28 34 -49 52 -43 6 2 12 1 12 -3
0 -13 69 -34 82 -26 26 16 72 75 75 97 2 12 15 43 28 69 28 53 30 62 14 52 -8
-5 -10 1 -6 18 5 19 1 27 -23 42 -17 9 -30 21 -30 27 0 5 -10 9 -23 9 -16 0
-28 -11 -42 -37z"/>
<path d="M3561 1530 c-2 -8 -4 -23 -6 -34 -2 -13 0 -15 7 -8 5 5 8 20 5 33 -2
13 -5 17 -6 9z"/>
<path d="M3415 1512 c-24 -20 -66 -77 -69 -95 -10 -47 -23 -79 -52 -130 -19
-32 -34 -61 -34 -65 0 -4 -9 -15 -20 -25 -11 -9 -20 -22 -20 -29 0 -9 3 -8 10
2 5 8 10 10 10 4 0 -6 16 4 36 23 20 19 39 32 41 29 3 -3 -11 -20 -31 -39 -20
-19 -36 -40 -36 -46 0 -7 10 -3 22 8 24 23 56 36 65 27 3 -3 -6 -10 -21 -15
-14 -6 -26 -15 -26 -21 0 -14 13 -13 36 5 10 8 28 14 39 14 l20 0 -20 -9 c-14
-6 -16 -9 -4 -9 8 -1 23 -7 34 -14 16 -13 15 -14 -13 -9 -26 3 -37 -2 -66 -34
-19 -21 -32 -42 -29 -48 3 -5 2 -6 -3 -3 -6 3 -16 2 -24 -4 -11 -6 -8 -9 14
-9 23 0 43 -15 93 -67 53 -56 63 -72 59 -94 -4 -21 3 -33 31 -60 20 -19 33
-28 29 -21 -5 8 0 12 12 12 16 0 19 -5 15 -22 -4 -19 -3 -20 6 -8 7 10 11 11
11 3 0 -16 36 -17 45 -2 4 6 13 8 21 5 13 -5 46 23 97 81 18 21 18 21 -15 20
-50 -1 -159 77 -143 103 4 7 16 3 32 -10 14 -11 32 -20 40 -20 8 0 13 -8 11
-17 -2 -13 3 -17 20 -16 12 2 22 -2 22 -7 0 -6 5 -10 10 -10 6 0 10 12 10 26
0 14 4 23 10 19 12 -7 50 16 50 31 0 6 7 17 15 24 8 7 13 16 10 20 -3 4 7 20
21 36 27 28 33 54 20 89 -6 16 -6 17 3 5 9 -12 11 -11 11 7 0 17 -11 28 -37
41 -21 10 -37 23 -36 30 3 14 -32 25 -57 17 -26 -8 -103 28 -153 72 -20 18
-34 33 -31 33 4 0 2 6 -4 13 -12 14 -17 65 -9 87 14 40 16 50 7 50 -21 0 -40
-34 -41 -73 0 -31 -2 -37 -8 -22 -5 11 -6 26 -4 33 6 16 -13 16 -23 0 -5 -8
-10 -2 -15 16 -6 22 -3 33 13 50 l22 21 -16 -26 c-11 -17 -13 -31 -7 -40 9
-15 10 -14 15 16 1 11 5 30 8 43 6 26 -2 27 -29 4z m-15 -86 c0 -7 -12 -23
-26 -37 l-27 -24 13 25 c7 14 18 28 24 32 7 5 7 8 -2 8 -7 0 -10 5 -7 10 8 13
25 3 25 -14z m10 -33 c0 -5 -10 -19 -21 -33 l-21 -25 18 33 c18 32 24 38 24
25z m125 -93 c10 -11 13 -20 7 -20 -6 0 -16 9 -22 20 -6 11 -9 20 -7 20 2 0
12 -9 22 -20z m-195 -45 c0 -8 -9 -15 -19 -15 -11 0 -23 -4 -26 -10 -3 -5 -11
-10 -17 -10 -6 0 1 11 16 25 31 28 46 32 46 10z m385 -35 c8 -13 -5 -13 -25 0
-13 8 -13 10 2 10 9 0 20 -4 23 -10z m-220 -180 c10 -11 16 -20 13 -20 -3 0
-13 9 -23 20 -10 11 -16 20 -13 20 3 0 13 -9 23 -20z m245 -40 c0 -5 -2 -10
-4 -10 -3 0 -8 5 -11 10 -3 6 -1 10 4 10 6 0 11 -4 11 -10z"/>
<path d="M3365 1510 c-3 -5 -2 -10 4 -10 5 0 13 5 16 10 3 6 2 10 -4 10 -5 0
-13 -4 -16 -10z"/>
<path d="M3471 1504 c0 -11 3 -14 6 -6 3 7 2 16 -1 19 -3 4 -6 -2 -5 -13z"/>
<path d="M2778 1479 c-21 -22 -11 -25 17 -5 11 7 29 16 40 19 14 3 11 5 -10 5
-17 0 -37 -8 -47 -19z"/>
<path d="M2875 1480 c-15 -6 -11 -8 17 -6 20 1 40 5 44 9 10 10 -36 8 -61 -3z"/>
<path d="M3815 1480 c-3 -5 -20 -10 -36 -10 -17 0 -28 -4 -24 -10 10 -16 56
-7 66 12 10 19 5 25 -6 8z"/>
<path d="M2958 1463 c6 -2 18 -2 25 0 6 3 1 5 -13 5 -14 0 -19 -2 -12 -5z"/>
<path d="M2884 1411 c-47 -18 -104 -64 -104 -83 0 -10 -3 -9 -10 2 -7 11 -11
8 -20 -15 -21 -55 -20 -95 6 -141 14 -24 22 -44 18 -44 -4 0 -1 -7 6 -15 7 -8
23 -15 37 -15 13 0 31 -7 39 -15 9 -8 33 -15 56 -15 47 0 46 11 -1 12 -44 1
-29 14 19 16 28 1 39 -2 34 -9 -4 -7 -3 -10 2 -7 5 2 26 12 47 21 47 22 47 27
1 20 -29 -5 -36 -3 -32 8 3 8 13 15 24 17 16 3 16 1 4 -7 -12 -9 -13 -11 -1
-11 8 0 23 8 34 18 11 9 17 11 13 5 -4 -8 -2 -11 6 -8 17 7 52 91 44 110 -3 8
-1 15 4 15 6 0 10 6 10 14 0 9 -7 12 -20 9 -17 -5 -18 -2 -10 26 5 19 5 31 -1
31 -5 0 -9 8 -10 18 0 15 -1 15 -8 -1 -6 -17 -8 -16 -19 8 -7 14 -16 23 -22
20 -5 -3 -23 1 -41 10 -17 9 -33 14 -37 11 -3 -3 -10 -2 -16 2 -6 5 -29 2 -52
-7z"/>
<path d="M2784 1396 c-10 -8 -16 -17 -12 -21 7 -7 48 16 48 27 0 12 -14 9 -36
-6z"/>
<path d="M1420 1391 c0 -6 4 -13 10 -16 6 -3 7 1 4 9 -7 18 -14 21 -14 7z"/>
<path d="M955 1370 c3 -5 8 -10 11 -10 2 0 4 5 4 10 0 6 -5 10 -11 10 -5 0 -7
-4 -4 -10z"/>
<path d="M1435 1271 c-22 -10 -89 -81 -98 -105 -10 -25 22 -106 41 -106 25 1
58 32 65 61 3 13 20 37 36 53 l30 28 -26 39 c-14 22 -26 39 -27 38 0 0 -10 -4
-21 -8z"/>
<path d="M1710 1250 c0 -5 5 -10 10 -10 6 0 10 5 10 10 0 6 -4 10 -10 10 -5 0
-10 -4 -10 -10z"/>
<path d="M1618 1223 c7 -3 16 -2 19 1 4 3 -2 6 -13 5 -11 0 -14 -3 -6 -6z"/>
<path d="M3162 1112 c-26 -33 -28 -38 -12 -39 10 -1 26 7 36 18 9 10 22 19 28
19 5 0 -6 -17 -25 -37 -19 -21 -23 -29 -9 -18 57 46 64 55 53 66 -7 7 -20 2
-42 -17 -18 -14 -34 -24 -37 -21 -3 2 12 19 33 36 24 20 32 31 21 31 -9 0 -30
-17 -46 -38z"/>
<path d="M1470 1087 c0 -17 29 -56 30 -40 0 6 -5 15 -11 18 -6 4 -8 13 -5 21
3 8 1 14 -4 14 -6 0 -10 -6 -10 -13z"/>
<path d="M1415 1060 c-3 -5 -1 -10 5 -10 6 0 9 -4 5 -10 -3 -5 -12 -7 -20 -3
-26 9 -61 -5 -75 -32 -16 -30 -35 -33 -27 -5 3 11 1 18 -4 14 -5 -3 -9 -13 -9
-22 0 -9 -12 -26 -26 -39 l-26 -22 25 -28 c15 -15 36 -39 49 -53 13 -14 35
-33 51 -43 15 -9 27 -22 27 -28 0 -6 -7 -3 -16 5 -27 27 -37 17 -12 -13 13
-15 26 -27 30 -25 4 3 9 0 13 -6 4 -6 11 -8 16 -5 5 3 6 0 3 -8 -3 -8 2 -17
10 -20 11 -4 13 -1 9 10 -5 13 -2 15 12 10 12 -5 23 -1 34 15 9 13 16 25 16
28 0 3 6 14 13 25 11 18 12 18 8 -8 -4 -24 -3 -27 10 -16 8 6 12 14 10 17 -3
2 1 10 8 18 19 18 8 60 -20 79 -14 9 -22 21 -18 27 4 7 3 8 -4 4 -15 -9 -57
57 -72 112 -11 44 -15 48 -25 32z"/>
<path d="M2958 1053 c6 -2 18 -2 25 0 6 3 1 5 -13 5 -14 0 -19 -2 -12 -5z"/>
<path d="M3086 1024 c-11 -8 -16 -14 -10 -14 13 0 39 18 34 24 -3 2 -14 -2
-24 -10z"/>
<path d="M1476 998 c10 -14 21 -24 23 -22 3 3 -6 15 -18 27 l-24 22 19 -27z"/>
<path d="M1832 998 c2 -6 11 -13 19 -16 11 -3 11 -2 -1 7 -13 9 -12 11 5 11
11 0 27 -5 35 -10 12 -8 12 -10 -5 -11 l-20 0 20 -9 c27 -12 43 -12 25 0 -13
8 -13 10 -1 10 11 0 9 4 -5 15 -23 18 -77 20 -72 3z"/>
<path d="M1930 962 c0 -6 9 -12 20 -15 11 -3 20 -3 20 -1 0 2 -9 8 -20 14 -11
6 -20 7 -20 2z"/>
<path d="M2060 953 c0 -8 28 -33 38 -33 6 0 12 -5 14 -12 3 -7 7 -6 11 5 4 11
1 17 -8 17 -8 0 -12 6 -10 13 3 7 -4 13 -20 13 -14 1 -25 0 -25 -3z"/>
<path d="M1880 940 c0 -5 5 -10 11 -10 5 0 7 5 4 10 -3 6 -8 10 -11 10 -2 0
-4 -4 -4 -10z"/>
<path d="M1810 931 c0 -5 7 -11 15 -15 19 -7 19 -32 0 -39 -21 -9 -67 -105
-64 -135 4 -35 -17 -72 -40 -72 -28 0 -59 -46 -81 -123 -8 -23 -4 -32 28 -62
20 -19 47 -35 60 -35 13 0 21 -4 18 -9 -7 -11 17 -21 49 -21 13 0 27 -4 30
-10 3 -5 17 -10 31 -10 19 0 28 8 39 33 7 17 25 42 40 55 22 19 25 28 19 57
-5 29 -2 38 17 55 14 11 18 19 11 20 -8 0 -1 15 17 37 29 35 44 92 21 78 -19
-12 -10 8 14 30 14 13 27 20 30 17 3 -3 6 0 6 6 0 16 -9 15 -42 -2 -34 -18
-42 -10 -16 16 19 19 19 22 4 30 -9 5 -26 6 -39 3 -17 -5 -19 -4 -7 4 10 7 11
11 3 11 -7 0 -13 7 -13 15 0 12 -7 14 -26 9 -20 -5 -31 -1 -48 18 -22 26 -76
53 -76 39z m-10 -172 c-10 -17 -14 -19 -21 -8 -13 21 -11 29 8 22 11 -4 14 -3
9 5 -4 7 -4 22 1 35 7 21 8 21 11 -5 2 -15 -2 -37 -8 -49z m197 -21 c-1 -13
-14 -48 -29 -78 -16 -32 -26 -45 -24 -30 6 36 17 62 35 84 9 10 15 20 14 22
-5 7 -3 24 1 24 3 0 4 -10 3 -22z m-337 -208 c0 -5 -5 -10 -11 -10 -5 0 -7 5
-4 10 3 6 8 10 11 10 2 0 4 -4 4 -10z"/>
<path d="M1940 906 c0 -2 7 -6 15 -10 8 -3 15 -1 15 4 0 6 -7 10 -15 10 -8 0
-15 -2 -15 -4z"/>
<path d="M2020 900 c0 -5 6 -10 13 -10 6 0 23 -3 37 -6 18 -4 16 -1 -9 10 -39
19 -41 19 -41 6z"/>
<path d="M2088 843 c6 -2 18 -2 25 0 6 3 1 5 -13 5 -14 0 -19 -2 -12 -5z"/>
<path d="M2145 830 c27 -12 43 -12 25 0 -8 5 -22 9 -30 9 -10 0 -8 -3 5 -9z"/>
<path d="M2605 810 c-3 -5 -2 -10 4 -10 5 0 13 5 16 10 3 6 2 10 -4 10 -5 0
-13 -4 -16 -10z"/>
<path d="M2748 813 c6 -2 18 -2 25 0 6 3 1 5 -13 5 -14 0 -19 -2 -12 -5z"/>
<path d="M2708 803 c7 -3 16 -2 19 1 4 3 -2 6 -13 5 -11 0 -14 -3 -6 -6z"/>
<path d="M2331 564 c0 -11 3 -14 6 -6 3 7 2 16 -1 19 -3 4 -6 -2 -5 -13z"/>
<path d="M2450 455 c15 -18 36 -20 46 -4 4 8 0 9 -15 4 -12 -4 -21 -2 -21 4 0
6 -5 11 -11 11 -8 0 -8 -5 1 -15z"/>
<path d="M1916 443 c-6 -14 -5 -15 5 -6 7 7 10 15 7 18 -3 3 -9 -2 -12 -12z"/>
<path d="M2525 440 c-34 -17 -36 -19 -11 -15 16 4 43 12 60 20 23 10 26 14 11
14 -11 0 -38 -8 -60 -19z"/>
<path d="M2430 430 c6 -11 15 -20 20 -20 6 0 2 9 -7 20 -10 11 -19 20 -21 20
-1 0 2 -9 8 -20z"/>
<path d="M2940 430 c13 -24 17 -25 17 -5 0 8 -6 16 -14 19 -11 4 -11 1 -3 -14z"/>
</g>
</svg>
